<svg id="Layer_1" data-name="Layer 1" xmlns="http://www.w3.org/2000/svg" viewBox="0 0 1024 480.0058">
  <g>
    <g>
      <path d="M3.27,271.9971V575.8607h317.608V271.9971ZM222.9716,516.0005q-31.7874,33.7386-80.1249,33.8584-17.9158.0453-44.3817-5.6631l-.6335-238.0315q23.9436-6.0491,42.6921-6.0965,49.9882-.1425,81.96,33.2255,31.959,33.3647,32.1187,91.3761Q254.7589,482.2763,222.9716,516.0005Z" transform="translate(0 -271.9971)" style="fill: #231f20"/>
      <path d="M140.5236,300.0678q-18.7459.0375-42.6921,6.0965l.6335,238.0315q26.4627,5.7052,44.3817,5.6631,48.3351-.1271,80.1249-33.8584,31.78-33.7315,31.63-91.3311-.1569-58.019-32.1187-91.3761Q190.5165,299.9353,140.5236,300.0678Z" transform="translate(0 -271.9971)" style="fill: #231f20"/>
      <path d="M281.7905,345.7359q-20.2047-33.1856-53.2456-47.3531-33.0662-14.1472-96.391-13.993l-115,.3042.01,7.6371,10.628-.025q16.04-.0375,24.1978,9.018,5.84,6.5951,5.9174,32.8165L58.39,514.9837q.06,23.7483-4.5014,30.573Q46.4109,556.93,28.5046,556.9728l-10.6331.03.025,7.6371,126.2413-.3241q82.2909-.2244,122.3932-44.0975,35.7055-39.3172,35.5685-97.7324Q301.9792,378.9139,281.7905,345.7359ZM222.9716,516.0005q-31.7874,33.7386-80.1249,33.8584-17.9158.0453-44.3817-5.6631l-.6335-238.0315q23.9436-6.0491,42.6921-6.0965,49.9882-.1425,81.96,33.2255,31.959,33.3647,32.1187,91.3761Q254.7589,482.2763,222.9716,516.0005Z" transform="translate(0 -271.9971)" style="fill: #fcfdff"/>
    </g>
    <path d="M392.2491,419.824l.17,64.1226,35.6531-.09q13.8783-.0452,18.5346-4.2374,6.2061-5.5185,6.8842-19.4019l4.4268-.01.15,56.4707-4.4268.01q-1.7054-11.844-3.39-15.1845a14.9283,14.9283,0,0,0-7.0735-6.56q-4.9128-2.3853-15.08-2.3533l-35.6531.09.14,53.48q.03,10.7673.992,13.1007a7.5052,7.5052,0,0,0,3.36,3.6989q2.4,1.3683,9.0977,1.3512l27.5177-.0751q13.7582-.03,19.97-1.9642a29.76,29.76,0,0,0,11.944-7.5672q7.4028-7.44,15.1344-22.4127l4.7856-.0149-13.8883,40.7126-125.0249.3292-.01-4.4268,5.7428-.01a22.7179,22.7179,0,0,0,10.8774-2.782,10.0717,10.0717,0,0,0,5.1945-5.7576q1.3609-3.8363,1.331-15.6781l-.2742-105.3987q-.0448-15.4342-3.1655-19.018-4.3146-4.7712-14.3719-4.7459l-5.7428.0148-.01-4.4267,125.0254-.3288,1.8841,35.5282-4.6662.01q-2.5421-12.7865-5.6029-17.5673a19.09,19.09,0,0,0-9.0532-7.2783q-4.7856-1.7794-16.874-1.75Z" transform="translate(0 -271.9971)" style="fill: #231f20"/>
    <path d="M632.4637,410.3374l1.8943,38.0356-4.5462.01q-1.3461-10.0422-3.6289-14.3421a23.9992,23.9992,0,0,0-9.8955-10.2043q-6.1692-3.2749-16.2212-3.25l-22.8517.0649.3293,123.943q.0367,14.9557,3.2752,18.6541,4.5612,5.0177,14.018,4.99l5.6228-.0148.01,4.4263-68.7939.18-.01-4.4268,5.7427-.01q10.2888-.0306,14.576-6.2614,2.6249-3.8363,2.5876-17.4775l-.3293-123.9435-19.5015.0546q-11.3661.03-16.1466,1.7152a22.1763,22.1763,0,0,0-10.628,8.7637q-4.4043,6.468-5.2144,17.4775l-4.5463.01,1.8142-38.0458Z" transform="translate(0 -271.9971)" style="fill: #231f20"/>
    <path d="M733.1222,517.9847l-62.8067.1644-10.9424,25.6332q-4.0376,9.4589-4.0276,14.1273c.01,2.4727,1.1863,4.6412,3.5493,6.5156q3.529,2.7963,15.2641,3.6045l.01,4.4267-51.0868.1343-.01-4.4268q10.1623-1.824,13.1456-4.6958,6.0865-5.7649,13.4544-23.37l56.72-133.6695,4.1873-.01,56.8245,134.8058q6.8646,16.2559,12.4376,21.0819,5.5789,4.8377,15.5086,5.4038l.01,4.4268-64.0083.17-.01-4.4268q9.6907-.5016,13.0905-3.2655a8.3393,8.3393,0,0,0,3.3951-6.71q-.0153-5.2642-4.8306-16.62Zm-3.37-8.8438-27.6869-65.4933L674,509.2858Z" transform="translate(0 -271.9971)" style="fill: #231f20"/>
    <path d="M873.7157,567.5059l.01,4.4268-69.5111.18-.01-4.4268,5.7428-.01q10.05-.03,14.5811-5.9021,2.8567-3.8437,2.8219-18.4346l-.2742-104.806q-.0375-12.3232-1.6-16.261a10.7549,10.7549,0,0,0-4.92-5.1348,22.6664,22.6664,0,0,0-11.0118-2.8413L803.8,414.31l-.0148-4.4268,69.5116-.1843.0148,4.4268-5.8622.0148q-9.93.0222-14.4621,5.9021-2.9832,3.8361-2.9408,18.43l.2741,104.8055q.03,12.3233,1.6,16.2666a10.7138,10.7138,0,0,0,5.0348,5.1292,22.0256,22.0256,0,0,0,10.8975,2.8418Z" transform="translate(0 -271.9971)" style="fill: #231f20"/>
    <path d="M1020.0469,526.6786l3.9531.8274-13.7638,44.0627-125.623.3344-.01-4.4268,6.1017-.02q10.2894-.023,14.6959-6.74,2.5053-3.8286,2.4676-17.7067l-.2742-104.6861q-.0444-15.1946-3.4048-19.0129-4.6731-5.25-13.8883-5.2293l-6.1017.0148-.0148-4.4268,73.46-.1894.0148,4.4268q-12.9213-.09-18.1207,2.4375-5.1967,2.5276-7.1037,6.3559-1.899,3.8438-1.8642,18.31l.269,101.9342q.023,9.93,1.95,13.6341a8.553,8.553,0,0,0,4.4365,3.6989q2.9985,1.189,18.6689,1.1465l11.8444-.03q18.664-.053,26.1917-2.8219a34.0887,34.0887,0,0,0,13.7337-9.79Q1013.8707,541.7678,1020.0469,526.6786Z" transform="translate(0 -271.9971)" style="fill: #231f20"/>
    <line y1="366.5759" x2="1020.9392" y2="366.5759" style="fill: none;stroke: #231f20;stroke-width: 25.523481369018555px"/>
    <path d="M47.9862,705.5124l1.1465,14.0328H47.9862a19.1479,19.1479,0,0,0-4.4717-7.901,13.9563,13.9563,0,0,0-10.1594-3.8388q-8.4648,0-12.8766,6.7249A24.18,24.18,0,0,0,16.79,728.0348a27.0416,27.0416,0,0,0,2.4477,11.605,17.244,17.244,0,0,0,6.4155,7.6821,15.4235,15.4235,0,0,0,8.1558,2.4477,17.769,17.769,0,0,0,4.7356-.6279,18.9441,18.9441,0,0,0,4.4166-1.83V734.4606a11.9308,11.9308,0,0,0-.5135-4.387,3.4827,3.4827,0,0,0-1.5651-1.57,9.0026,9.0026,0,0,0-3.7387-.5385v-1.241H54.2971v1.241h-.8223a3.6318,3.6318,0,0,0-3.49,1.705,11.61,11.61,0,0,0-.658,4.7907v13.604a33.2677,33.2677,0,0,1-7.413,2.9863,32.3938,32.3938,0,0,1-8.1354.952q-12.8463,0-19.5117-8.265a22.1231,22.1231,0,0,1-4.9949-14.2922,23.9394,23.9394,0,0,1,2.8116-11.2466,24.0486,24.0486,0,0,1,9.1425-9.8352,22.394,22.394,0,0,1,11.5055-2.8515,22.4659,22.4659,0,0,1,4.3921.3936,40.8551,40.8551,0,0,1,5.6029,1.7351,8.8543,8.8543,0,0,0,2.4528.6876,1.3042,1.3042,0,0,0,1.0567-.5733,4.3818,4.3818,0,0,0,.5436-2.243Z" transform="translate(0 -271.9971)" style="fill: #231f20"/>
    <path d="M89.9054,708.6079V726.18h9.7408q3.7842,0,5.0649-1.1516c1.1317-1.0067,1.76-2.7714,1.8944-5.314h1.2062v15.4738h-1.2062a16.9067,16.9067,0,0,0-.9174-4.1628,4.04,4.04,0,0,0-1.9239-1.8,9.8721,9.8721,0,0,0-4.118-.663H89.9054v14.6561a13.5783,13.5783,0,0,0,.2645,3.5891,2.0452,2.0452,0,0,0,.9173,1.0122,5.4765,5.4765,0,0,0,2.4824.3788h7.5172a20.3579,20.3579,0,0,0,5.4538-.5186,8.131,8.131,0,0,0,3.2655-2.0639,25.2884,25.2884,0,0,0,4.1522-6.1312h1.3063l-3.8235,11.1466H77.2984V749.42h1.5651a6.1972,6.1972,0,0,0,2.976-.7524,2.7838,2.7838,0,0,0,1.4258-1.57,15.525,15.525,0,0,0,.369-4.3022V713.9173q0-4.2252-.8474-5.2145a5.0551,5.0551,0,0,0-3.9234-1.316H77.2984V706.18h34.1427l.4886,9.7362h-1.2762a15.3167,15.3167,0,0,0-1.51-4.8158,5.289,5.289,0,0,0-2.4727-2.0087,14.893,14.893,0,0,0-4.606-.4839Z" transform="translate(0 -271.9971)" style="fill: #231f20"/>
    <path d="M141.5854,706.18H153.61l27.0886,33.3352V713.8821c0-2.7316-.3089-4.4315-.9168-5.1144a4.8458,4.8458,0,0,0-3.8188-1.3809h-1.54V706.18h15.4233v1.2067h-1.57a4.498,4.498,0,0,0-3.9832,1.705c-.4834.7075-.7228,2.2981-.7228,4.79V751.35h-1.171l-29.2127-35.7977v27.3729q0,4.1049.8826,5.12a4.919,4.919,0,0,0,3.8234,1.3757h1.5651v1.2119H144.0331V749.42h1.5355a4.54,4.54,0,0,0,4.023-1.7044c.4783-.6983.7228-2.2936.7228-4.7908V712.0127a19.9948,19.9948,0,0,0-2.9362-2.9811,10.5847,10.5847,0,0,0-2.9163-1.341,10.43,10.43,0,0,0-2.8765-.3038Z" transform="translate(0 -271.9971)" style="fill: #231f20"/>
    <path d="M223.9435,708.6079V726.18H233.68q3.7911,0,5.0644-1.1516c1.1317-1.0067,1.7647-2.7714,1.8943-5.314H241.85v15.4738h-1.2114a16.9826,16.9826,0,0,0-.9122-4.1628,4.0733,4.0733,0,0,0-1.929-1.8,9.8532,9.8532,0,0,0-4.1175-.663h-9.7362v14.6561a13.6759,13.6759,0,0,0,.2594,3.5891,2.0689,2.0689,0,0,0,.9173,1.0122,5.4927,5.4927,0,0,0,2.4824.3788H235.12a20.3536,20.3536,0,0,0,5.4533-.5186,8.0971,8.0971,0,0,0,3.2655-2.0639,25.1573,25.1573,0,0,0,4.1527-6.1312h1.3057l-3.8234,11.1466H211.3314V749.42h1.57a6.18,6.18,0,0,0,2.9714-.7524,2.776,2.776,0,0,0,1.4206-1.57,15.6037,15.6037,0,0,0,.3788-4.3022V713.9173q0-4.2252-.8525-5.2145a5.05,5.05,0,0,0-3.9183-1.316h-1.57V706.18h34.1427l.4936,9.7362h-1.2761a15.2515,15.2515,0,0,0-1.5253-4.8158,5.2486,5.2486,0,0,0-2.4579-2.0087,14.9539,14.9539,0,0,0-4.6111-.4839Z" transform="translate(0 -271.9971)" style="fill: #231f20"/>
    <path d="M316.9649,750.6323h-11.83L290.14,729.8444c-1.1118.045-2.0138.07-2.7116.07-.2843,0-.5886-.0153-.9127-.025-.3288-.01-.6677-.02-1.0169-.045v12.921c0,2.7969.3094,4.5366.9173,5.2094A4.6378,4.6378,0,0,0,290.14,749.42h1.73v1.2119H272.8868V749.42h1.6652a4.4284,4.4284,0,0,0,4.0179-1.8392c.4635-.6728.6881-2.2782.6881-4.8158V714.0469c0-2.7917-.3042-4.5365-.9122-5.2144a4.81,4.81,0,0,0-3.7938-1.4457h-1.6652V706.18h16.1416a38.5767,38.5767,0,0,1,10.4039,1.0219,11.9474,11.9474,0,0,1,5.683,3.8087,9.9347,9.9347,0,0,1,2.338,6.6105,10.3862,10.3862,0,0,1-2.6672,7.1134q-2.6616,3.0138-8.24,4.2625l9.1476,12.7515a22.7235,22.7235,0,0,0,5.3885,5.8326,13.5151,13.5151,0,0,0,5.8827,1.8392ZM285.499,727.7806c.414,0,.7729,0,1.0817.01.2991.0153.5534.025.7478.025q6.3408,0,9.5514-2.7514a8.8249,8.8249,0,0,0,3.2252-7.0144,9.1818,9.1818,0,0,0-2.6019-6.7744,9.2829,9.2829,0,0,0-6.8745-2.6075,28.5767,28.5767,0,0,0-5.13.6284Z" transform="translate(0 -271.9971)" style="fill: #231f20"/>
    <path d="M375.32,735.7465H358.1663l-3.006,7.0189a11.1976,11.1976,0,0,0-1.1117,3.8684,2.2489,2.2489,0,0,0,.9621,1.7851c.6431.5084,2.034.8474,4.1725,1.0015v1.2119H345.235V749.42a7.47,7.47,0,0,0,3.5893-1.2807c1.1117-1.0419,2.343-3.1808,3.6889-6.3911l15.5883-36.5854h1.1465l15.4188,36.98q1.8619,4.4564,3.38,5.7775a6.8671,6.8671,0,0,0,4.2323,1.5v1.2119H374.7964V749.42a6.5032,6.5032,0,0,0,3.5743-.8872,2.2878,2.2878,0,0,0,.9372-1.8346,13.5729,13.5729,0,0,0-1.3061-4.5559Zm-.9122-2.4227L366.89,715.3527l-7.7069,17.9711Z" transform="translate(0 -271.9971)" style="fill: #231f20"/>
    <path d="M449.5124,738.8026l1.0766.2242-3.7882,12.0639H412.4934v-1.2114h1.665a4.4474,4.4474,0,0,0,4.018-1.8346c.4636-.7029.6879-2.318.6879-4.8556V714.5053q0-4.1646-.9172-5.2093a4.755,4.755,0,0,0-3.7887-1.4406h-1.665V706.639h20.06v1.2164a12.3063,12.3063,0,0,0-4.955.6478,4.05,4.05,0,0,0-1.9392,1.74q-.5234,1.0543-.5234,5.0154v27.9308a9.1394,9.1394,0,0,0,.5234,3.7438A2.31,2.31,0,0,0,426.87,747.94a20.9208,20.9208,0,0,0,5.0947.3338h3.24a23.4194,23.4194,0,0,0,7.1486-.7575,9.2632,9.2632,0,0,0,3.7586-2.6672A22.0991,22.0991,0,0,0,449.5124,738.8026Z" transform="translate(0 -271.9971)" style="fill: #231f20"/>
    <path d="M526.771,705.1632l1.0117,15.11H526.771q-2.0193-6.7826-5.7826-9.7658a14.0466,14.0466,0,0,0-9.018-2.9811,14.661,14.661,0,0,0-7.9715,2.2384,14.8923,14.8923,0,0,0-5.6131,7.1685,32.1274,32.1274,0,0,0-2.0286,12.2283,26.0238,26.0238,0,0,0,1.9239,10.4534,14.4284,14.4284,0,0,0,5.798,6.7847,16.6151,16.6151,0,0,0,8.8382,2.3629,15.3486,15.3486,0,0,0,7.6172-1.854q3.29-1.8545,7.2482-7.3533l1.0169.6534a23.2933,23.2933,0,0,1-7.7816,8.6836,19.574,19.574,0,0,1-10.5535,2.7616q-10.9993,0-17.0538-8.2a23.4817,23.4817,0,0,1-4.5064-14.357,25.5255,25.5255,0,0,1,2.9761-12.2334,21.5247,21.5247,0,0,1,8.1756-8.6392,22.08,22.08,0,0,1,11.3958-3.0608,20.7892,20.7892,0,0,1,9.4717,2.363,5.1682,5.1682,0,0,0,1.9592.7177,2.1342,2.1342,0,0,0,1.535-.6228,5.0863,5.0863,0,0,0,1.2113-2.4579Z" transform="translate(0 -271.9971)" style="fill: #231f20"/>
    <path d="M567.4391,705.1632a20.05,20.05,0,0,1,14.945,6.5657A22.7549,22.7549,0,0,1,588.71,728.14q0,10.1318-6.3763,16.8194a21.2424,21.2424,0,0,1-30.7976.17q-6.2214-6.5276-6.216-16.8843,0-10.5959,7.1884-17.2784A21.16,21.16,0,0,1,567.4391,705.1632Zm-.6233,2.3931a11.6724,11.6724,0,0,0-9.5366,4.4217q-4.4787,5.5185-4.4763,16.1314,0,10.8874,4.6361,16.75a11.4467,11.4467,0,0,0,9.4115,4.4564,12.8261,12.8261,0,0,0,10.3043-4.8852q4.0674-4.883,4.0725-15.3988,0-11.41-4.4763-17.0191A12.0564,12.0564,0,0,0,566.8158,707.5563Z" transform="translate(0 -271.9971)" style="fill: #231f20"/>
    <path d="M601.2076,706.18h12.0287l27.0891,33.3352V713.8821c0-2.7316-.3093-4.4315-.9173-5.1144a4.8482,4.8482,0,0,0-3.8234-1.3809h-1.5355V706.18h15.4187v1.2067h-1.5651a4.4972,4.4972,0,0,0-3.9831,1.705c-.4835.7075-.7229,2.2981-.7229,4.79V751.35H642.02l-29.2075-35.7977v27.3729c0,2.7366.2894,4.4416.8826,5.12a4.9187,4.9187,0,0,0,3.8234,1.3757h1.5656v1.2119H603.66V749.42h1.54a4.53,4.53,0,0,0,4.0179-1.7044c.4738-.6983.7183-2.2936.7183-4.7908V712.0127a20.0266,20.0266,0,0,0-2.9317-2.9811,9.4078,9.4078,0,0,0-5.7974-1.6448Z" transform="translate(0 -271.9971)" style="fill: #231f20"/>
    <path d="M692.6185,706.18l.4885,10.4238h-1.2364a12.58,12.58,0,0,0-.9816-3.9332,6.5914,6.5914,0,0,0-2.7019-2.8117,9.3815,9.3815,0,0,0-4.4217-.8969h-6.2415v33.9631c0,2.7366.2991,4.4416.8872,5.12A4.9012,4.9012,0,0,0,682.23,749.42h1.5355v1.2119H664.9765V749.42h1.57a4.4963,4.4963,0,0,0,3.9883-1.7044c.4732-.6983.7177-2.2936.7177-4.7908V708.9621h-5.3293a14.6456,14.6456,0,0,0-4.4063.4636,5.9774,5.9774,0,0,0-2.9066,2.3925,9.6578,9.6578,0,0,0-1.4406,4.7857h-1.2415l.5238-10.4238Z" transform="translate(0 -271.9971)" style="fill: #231f20"/>
    <path d="M743.94,750.6323H732.11l-14.995-20.7879c-1.1118.045-2.0143.07-2.7173.07-.2792,0-.5829-.0153-.9071-.025-.3292-.01-.6682-.02-1.0168-.045v12.921q0,4.1954.9173,5.2094a4.637,4.637,0,0,0,3.7239,1.4456h1.73v1.2119H699.862V749.42h1.6647a4.43,4.43,0,0,0,4.0184-1.8392c.4635-.6728.6876-2.2782.6876-4.8158V714.0469c0-2.7917-.3038-4.5365-.9173-5.2144a4.7912,4.7912,0,0,0-3.7887-1.4457H699.862V706.18h16.1416a38.59,38.59,0,0,1,10.4085,1.0219,11.9374,11.9374,0,0,1,5.6881,3.8087,9.9305,9.9305,0,0,1,2.3329,6.6105,10.3835,10.3835,0,0,1-2.6616,7.1134q-2.6623,3.0138-8.2507,4.2625l9.143,12.7515a22.8,22.8,0,0,0,5.3936,5.8326A13.5106,13.5106,0,0,0,743.94,749.42Zm-31.4653-22.8517c.4135,0,.7723,0,1.0817.01.2991.0153.5533.025.7478.025q6.3408,0,9.5662-2.7514a8.8271,8.8271,0,0,0,3.21-7.0144,9.1751,9.1751,0,0,0-2.5922-6.7744,9.2985,9.2985,0,0,0-6.8842-2.6075,28.5706,28.5706,0,0,0-5.13.6284Z" transform="translate(0 -271.9971)" style="fill: #231f20"/>
    <path d="M775.4253,735.7465H758.272l-3.0062,7.0189a11.0876,11.0876,0,0,0-1.1118,3.8684,2.2568,2.2568,0,0,0,.9572,1.7851c.6483.5084,2.0388.8474,4.1725,1.0015v1.2119H745.3306V749.42a7.4282,7.4282,0,0,0,3.5942-1.2807c1.1118-1.0419,2.343-3.1808,3.6937-6.3911l15.5883-36.5854h1.1419l15.4187,36.98q1.8692,4.4564,3.3747,5.7775a6.91,6.91,0,0,0,4.2425,1.5v1.2119H774.9021V749.42a6.5451,6.5451,0,0,0,3.5743-.8872,2.3017,2.3017,0,0,0,.9372-1.8346,13.6165,13.6165,0,0,0-1.3114-4.5559Zm-.9173-2.4227-7.5126-17.9711-7.7117,17.9711Z" transform="translate(0 -271.9971)" style="fill: #231f20"/>
    <path d="M838.6955,705.1632l1.0122,15.11h-1.0122q-2.0184-6.7826-5.7826-9.7658a14.0413,14.0413,0,0,0-9.0129-2.9811,14.64,14.64,0,0,0-7.9761,2.2384,14.8557,14.8557,0,0,0-5.608,7.1685,32.0219,32.0219,0,0,0-2.0342,12.2283,26.0133,26.0133,0,0,0,1.9245,10.4534,14.4267,14.4267,0,0,0,5.7974,6.7847,16.6217,16.6217,0,0,0,8.8433,2.3629,15.3466,15.3466,0,0,0,7.6127-1.854q3.297-1.8545,7.2481-7.3533l1.0169.6534a23.3309,23.3309,0,0,1-7.7765,8.6836,19.6,19.6,0,0,1-10.5535,2.7616q-11.007,0-17.0588-8.2a23.4811,23.4811,0,0,1-4.5065-14.357,25.633,25.633,0,0,1,2.971-12.2334,21.5857,21.5857,0,0,1,8.1853-8.6392,22.05,22.05,0,0,1,11.3912-3.0608,20.77,20.77,0,0,1,9.4712,2.363,5.1287,5.1287,0,0,0,1.9643.7177,2.1446,2.1446,0,0,0,1.5355-.6228,5.1371,5.1371,0,0,0,1.2063-2.4579Z" transform="translate(0 -271.9971)" style="fill: #231f20"/>
    <path d="M894.5332,706.18l.4936,10.4238h-1.2461a12.7478,12.7478,0,0,0-.9775-3.9332,6.6169,6.6169,0,0,0-2.7014-2.8117,9.3964,9.3964,0,0,0-4.4222-.8969h-6.241v33.9631q0,4.1049.8821,5.12a4.9193,4.9193,0,0,0,3.8239,1.3757h1.535v1.2119H866.8964V749.42h1.5651a4.4865,4.4865,0,0,0,3.9831-1.7044q.7252-1.0475.7229-4.7908V708.9621h-5.3242a14.7016,14.7016,0,0,0-4.4166.4636,6.0224,6.0224,0,0,0-2.9066,2.3925,9.7106,9.7106,0,0,0-1.4355,4.7857h-1.2414l.5186-10.4238Z" transform="translate(0 -271.9971)" style="fill: #231f20"/>
    <path d="M930.1614,705.1632a20.0566,20.0566,0,0,1,14.945,6.5657,22.7549,22.7549,0,0,1,6.3263,16.4106q0,10.1318-6.3707,16.8194a21.2485,21.2485,0,0,1-30.8028.17q-6.2212-6.5276-6.2164-16.8843,0-10.5959,7.1884-17.2784A21.1681,21.1681,0,0,1,930.1614,705.1632Zm-.6182,2.3931a11.6813,11.6813,0,0,0-9.5412,4.4217q-4.4793,5.5185-4.4768,16.1314,0,10.8874,4.6412,16.75a11.4249,11.4249,0,0,0,9.4069,4.4564,12.8184,12.8184,0,0,0,10.3039-4.8852q4.0681-4.883,4.073-15.3988,0-11.41-4.4768-17.0191A12.06,12.06,0,0,0,929.5432,707.5563Z" transform="translate(0 -271.9971)" style="fill: #231f20"/>
    <path d="M1016.0637,750.6323h-11.8291L989.24,729.8444c-1.1118.045-2.0143.07-2.7172.07-.2793,0-.583-.0153-.9072-.025-.3292-.01-.6682-.02-1.0168-.045v12.921q0,4.1954.9173,5.2094A4.637,4.637,0,0,0,989.24,749.42h1.7294v1.2119H971.9862V749.42h1.6647a4.4284,4.4284,0,0,0,4.0179-1.8392c.464-.6728.6881-2.2782.6881-4.8158V714.0469c0-2.7917-.3043-4.5365-.9122-5.2144a4.81,4.81,0,0,0-3.7938-1.4457h-1.6647V706.18h16.1416a38.5072,38.5072,0,0,1,10.3987,1.0219,11.9334,11.9334,0,0,1,5.6877,3.8087,9.9388,9.9388,0,0,1,2.3431,6.6105,10.3927,10.3927,0,0,1-2.6718,7.1134q-2.6623,3.0138-8.2406,4.2625l9.1426,12.7515a22.8,22.8,0,0,0,5.3941,5.8326,13.51,13.51,0,0,0,5.8821,1.8392Zm-31.4653-22.8517c.4135,0,.7723,0,1.0817.01.3042.0153.5533.025.7478.025q6.3408,0,9.556-2.7514a8.8347,8.8347,0,0,0,3.2205-7.0144,8.9421,8.9421,0,0,0-9.4763-9.3819,28.57,28.57,0,0,0-5.13.6284Z" transform="translate(0 -271.9971)" style="fill: #231f20"/>
  </g>
</svg>
